<?xml version="1.0" encoding="UTF-8" standalone="no"?>
<!-- Created with Inkscape (http://www.inkscape.org/) -->

<svg
   version="1.1"
   id="svg1"
   width="501.0451"
   height="140.96179"
   viewBox="0 0 501.0451 140.96179"
   sodipodi:docname="redink-logo.svg"
   inkscape:version="1.4.3 (0d15f75, 2025-12-25)"
   xmlns:inkscape="http://www.inkscape.org/namespaces/inkscape"
   xmlns:sodipodi="http://sodipodi.sourceforge.net/DTD/sodipodi-0.dtd"
   xmlns="http://www.w3.org/2000/svg"
   xmlns:svg="http://www.w3.org/2000/svg">
  <defs
     id="defs1">
    <rect
       x="979.39392"
       y="1383.4343"
       width="478.38385"
       height="358.78787"
       id="rect90" />
    <linearGradient
       id="swatch86"
       inkscape:swatch="solid">
      <stop
         style="stop-color:#ff1616;stop-opacity:1;"
         offset="0"
         id="stop86" />
    </linearGradient>
    <inkscape:path-effect
       effect="fillet_chamfer"
       id="path-effect86"
       is_visible="true"
       lpeversion="1"
       nodesatellites_param="F,0,0,1,0,0,0,1 @ F,0,0,1,0,0,0,1 @ F,0,0,1,0,0,0,1 @ F,0,0,1,0,0,0,1 @ F,0,0,1,0,0,0,1 @ F,0,0,1,0,0,0,1 @ F,0,0,1,0,0,0,1 @ F,0,0,1,0,0,0,1 @ F,0,0,1,0,0,0,1 @ F,0,0,1,0,0,0,1 @ F,0,0,1,0,0,0,1 @ F,0,0,1,0,0,0,1 @ F,0,0,1,0,0,0,1 @ F,0,0,1,0,0,0,1"
       radius="0"
       unit="px"
       method="auto"
       mode="F"
       chamfer_steps="1"
       flexible="false"
       use_knot_distance="true"
       apply_no_radius="true"
       apply_with_radius="true"
       only_selected="false"
       hide_knots="false" />
    <linearGradient
       id="swatch70"
       inkscape:swatch="solid">
      <stop
         style="stop-color:#cccccc;stop-opacity:1;"
         offset="0"
         id="stop70" />
    </linearGradient>
    <linearGradient
       id="swatch23"
       inkscape:swatch="solid">
      <stop
         style="stop-color:#000000;stop-opacity:1;"
         offset="0"
         id="stop23" />
    </linearGradient>
    <marker
       style="overflow:visible"
       id="DartArrow-6"
       refX="0.076682448"
       refY="-0.0078133754"
       orient="-48.39595657"
       inkscape:stockid="Dart arrow"
       markerWidth="0.35500038"
       markerHeight="0.4049817"
       viewBox="0 0 1 1"
       inkscape:isstock="true"
       inkscape:collect="always"
       preserveAspectRatio="none">
      <path
         style="fill:context-stroke;fill-rule:evenodd;stroke:none"
         d="M 0,0 5,-5 -12.5,0 5,5 Z"
         transform="scale(-0.5)"
         id="path6-1" />
    </marker>
  </defs>
  <sodipodi:namedview
     id="namedview1"
     pagecolor="#505050"
     bordercolor="#ffffff"
     borderopacity="1"
     inkscape:showpageshadow="0"
     inkscape:pageopacity="0"
     inkscape:pagecheckerboard="1"
     inkscape:deskcolor="#505050"
     showgrid="false"
     inkscape:zoom="0.87504464"
     inkscape:cx="776.53181"
     inkscape:cy="1501.0663"
     inkscape:window-width="1366"
     inkscape:window-height="697"
     inkscape:window-x="-8"
     inkscape:window-y="-8"
     inkscape:window-maximized="1"
     inkscape:current-layer="g1"
     showguides="true"
     inkscape:export-bgcolor="#00000000">
    <inkscape:page
       x="0"
       y="0"
       width="501.0451"
       height="140.96179"
       id="page2"
       margin="0"
       bleed="0" />
  </sodipodi:namedview>
  <g
     inkscape:groupmode="layer"
     inkscape:label="Image"
     id="g1"
     transform="translate(-575.32319,-1277.9697)">
    <path
       style="fill:#f2f2f2;stroke-width:0.252101"
       d="m 655.15536,1418.7729 c -0.4183,-0.1278 -1.49603,-0.8355 -2.39496,-1.5728 -3.5202,-2.8873 -5.18735,-3.6917 -6.8866,-3.3231 -0.77778,0.1687 -3.16386,1.3298 -6.95202,3.3829 -2.19095,1.1875 -3.53187,1.3114 -5.24078,0.4841 -2.14647,-1.039 -3.0276,-3.9289 -1.76839,-5.7998 0.67235,-0.999 2.88102,-2.3924 7.11253,-4.4872 3.6734,-1.8184 5.49788,-2.3723 7.81513,-2.3723 3.69972,0 7.29956,1.6987 11.51394,5.4332 2.42516,2.149 2.96568,3.7561 1.98772,5.9101 -0.83159,1.8317 -3.26512,2.9319 -5.18657,2.3449 z m 16.89501,-5.5227 c -0.56332,-0.2645 -3.50862,-2.8336 -6.67313,-5.8208 -6.37609,-6.0187 -7.55504,-7.0495 -9.7322,-8.5092 -1.75355,-1.1756 -3.05254,-2.5523 -3.28606,-3.4828 -0.44586,-1.7764 0.66126,-4.2293 2.249,-4.9827 1.17964,-0.5598 3.07798,-0.5184 4.43342,0.096 1.32447,0.601 4.12383,2.943 8.51718,7.126 1.77721,1.692 4.74738,4.4274 6.60038,6.0787 1.853,1.6512 3.58261,3.3524 3.8436,3.7804 0.89287,1.4642 0.53056,3.5956 -0.82662,4.8628 -1.41534,1.3214 -3.41594,1.6537 -5.12557,0.8511 z m -61.1564,-3.8718 c -1.82526,-1.23 -2.45268,-3.561 -1.51454,-5.6268 0.58716,-1.2928 1.44666,-1.9099 3.9629,-2.8453 12.84214,-4.7735 22.13871,-12.2326 28.9555,-23.2322 5.10324,-8.2346 7.69014,-18.2403 7.69284,-29.7546 10e-4,-5.4475 -0.5055,-7.5165 -2.24616,-9.1702 -0.7806,-0.7416 -0.7806,-0.7416 -1.47267,-0.2342 -1.19755,0.878 -1.49994,1.8382 -1.67804,5.3281 -0.37604,7.3685 -1.25426,13.0142 -2.69273,17.3104 -1.00881,3.013 -3.57975,8.2411 -5.6442,11.4777 -7.29494,11.4367 -19.19933,20.3232 -31.76957,23.7155 -4.3568,1.1758 -6.1546,0.9494 -7.43698,-0.9362 -0.5233,-0.7695 -0.62997,-1.2236 -0.62857,-2.6762 0.002,-1.7108 0.0228,-1.7677 0.95757,-2.5757 0.63083,-0.5453 1.7019,-1.0578 3.14958,-1.5069 9.66799,-2.9992 15.74755,-6.4269 21.89608,-12.3454 2.92303,-2.8137 6.54354,-7.765 8.67042,-11.8575 3.17152,-6.1026 4.22387,-10.6016 4.65851,-19.916 0.28556,-6.1196 1.26914,-8.9286 4.09362,-11.6909 1.9952,-1.9513 3.65192,-2.9094 5.66921,-3.2787 5.47254,-1.0019 10.54463,3.5276 12.31973,11.0017 0.54034,2.2752 0.70008,6.1011 0.5025,12.0351 -0.70096,21.0521 -12.01376,39.8027 -30.87235,51.17 -2.63924,1.5908 -8.03298,4.1672 -11.05654,5.2813 -2.90459,1.0703 -4.29116,1.1525 -5.51611,0.327 z m 75.35977,-5.4812 c -1.02958,-0.544 -4.2943,-3.5039 -7.48071,-6.7825 -7.72666,-7.9501 -12.17681,-15.6362 -13.51246,-23.3381 -0.45303,-2.6124 -0.50673,-9.5421 -0.13773,-17.7731 0.54375,-12.1285 0.58664,-18.1383 0.1473,-20.6391 -1.5964,-9.0872 -8.69931,-15.3877 -17.36907,-15.407 -4.87555,-0.011 -8.98609,1.7159 -12.55369,5.2735 -2.52601,2.5189 -3.9257,4.7502 -4.99194,7.9574 -0.64117,1.9287 -0.8506,3.2767 -1.39649,8.9885 -0.94534,9.8913 -1.65293,12.9804 -4.17779,18.2384 -4.3875,9.137 -13.69093,17.2564 -22.81626,19.9122 -3.008,0.8755 -6.60944,1.4099 -7.75698,1.1511 -2.07259,-0.4675 -3.51858,-2.2575 -3.54946,-4.3939 -0.037,-2.5593 1.52802,-3.9888 4.67459,-4.2699 2.5352,-0.2265 4.59675,-0.8331 7.38955,-2.1743 6.07418,-2.917 11.29514,-7.9632 14.25612,-13.7789 2.13856,-4.2005 2.87469,-7.2642 3.41658,-14.2194 0.56764,-7.2858 1.076,-10.1984 2.322,-13.3041 2.93067,-7.3047 7.77977,-12.5465 14.53499,-15.7121 3.82742,-1.7937 5.45642,-2.1168 10.59639,-2.1019 5.18124,0.015 6.84659,0.3446 10.58201,2.0951 2.83352,1.3278 4.67067,2.5749 6.91693,4.6953 4.93655,4.6598 7.8686,10.5986 8.63482,17.4894 0.30558,2.7481 0.19586,7.4206 -0.57496,24.4854 -0.3813,8.4415 -0.22817,11.3307 0.75789,14.2998 2.49287,7.5063 8.27316,15.2488 15.65813,20.9736 1.77202,1.3737 2.40226,2.1729 2.75943,3.4993 0.77193,2.8668 -1.19207,5.3616 -4.19897,5.3339 -0.68753,-0.01 -1.60486,-0.2211 -2.13022,-0.4986 z m 10.16097,-13.3559 c -1.23707,-0.2913 -4.08493,-2.3285 -6.24329,-4.466 -3.54302,-3.5087 -6.44659,-8.1095 -7.68207,-12.1726 -0.6575,-2.1623 -0.65174,-1.8978 -0.54405,-24.958 0.0713,-15.2648 0.004,-16.1061 -1.70878,-21.442 -2.24835,-7.0033 -7.12227,-13.7037 -12.9822,-17.8471 -7.58147,-5.3607 -16.31401,-7.2455 -26.33842,-5.6848 -10.99875,1.7123 -21.54134,10.5251 -25.4922,21.3095 -1.27734,3.4867 -1.73471,6.4597 -1.73471,11.2759 0,6.562 -0.98755,11.026 -3.46445,15.6602 -2.45794,4.5987 -5.16469,7.4541 -9.14877,9.651 -2.47384,1.3641 -6.88722,2.432 -8.66951,2.0976 -2.57141,-0.4824 -3.93502,-3.7032 -2.67223,-6.3118 0.64324,-1.3288 1.4204,-1.7661 4.22623,-2.3785 1.26074,-0.2752 2.72702,-0.7227 3.25839,-0.9943 2.64144,-1.3508 5.13813,-4.5952 6.37342,-8.2823 0.84593,-2.525 1.12456,-4.7253 1.51326,-11.9497 0.20514,-3.8131 0.39105,-5.2223 0.99772,-7.5631 1.8588,-7.1721 5.17882,-13.0738 10.42407,-18.5299 8.40107,-8.739 19.00019,-13.2222 31.22559,-13.208 7.31782,0.01 12.80596,1.3167 19.12959,4.5597 10.36787,5.317 18.21911,14.9522 21.77389,26.7212 1.75579,5.813 1.79054,6.3228 1.79424,26.3197 0.003,17.8353 0.005,17.9051 0.56387,19.5379 1.27121,3.7161 4.37078,7.5184 8.13693,9.9817 2.03626,1.3319 3.02522,2.7252 3.02522,4.262 0,1.1933 -1.0112,2.936 -2.14286,3.693 -1.14282,0.7644 -2.38095,1.0102 -3.61888,0.7187 z m 4.2064,-16.883 c -0.5088,-0.2768 -1.18947,-0.8738 -1.51261,-1.3269 -0.58752,-0.8237 -0.58752,-0.8237 -0.5887,-19.8573 -10e-4,-17.2073 -0.0449,-19.2877 -0.45669,-21.6807 -1.44192,-8.3793 -3.84277,-14.6588 -8.09639,-21.1765 -9.60942,-14.7242 -27.50304,-23.8795 -45.14326,-23.0976 -24.58086,1.0895 -43.79647,18.551 -46.50233,42.2573 -0.15036,1.3172 -0.42842,4.8907 -0.61795,7.9411 -0.40733,6.5562 -0.54362,7.0154 -2.42202,8.1605 -1.77148,1.0799 -4.44394,0.4226 -5.54852,-1.3646 -0.51548,-0.8341 -0.55853,-1.1931 -0.52251,-4.3566 0.0739,-6.4881 1.00756,-14.8253 2.19301,-19.5821 3.71782,-14.9183 14.80656,-28.3031 29.53311,-35.6482 12.35417,-6.162 26.97485,-7.6076 40.82738,-4.0371 5.33521,1.3752 12.11505,4.2595 16.67303,7.0932 6.50884,4.0466 13.68031,10.8209 18.03332,17.0348 4.94125,7.0535 8.16933,15.1577 9.63265,24.1829 0.8712,5.3733 1.04405,42.1059 0.20579,43.7354 -0.98004,1.9051 -3.78771,2.7554 -5.68731,1.7224 z"
       id="path1"
       inkscape:export-filename="redink-big-logo-t.png"
       inkscape:export-xdpi="200"
       inkscape:export-ydpi="200" />
    <path
       style="mix-blend-mode:normal;fill:none;fill-opacity:1;fill-rule:evenodd;stroke:#262626;stroke-width:19.6853;stroke-linecap:round;stroke-linejoin:round;stroke-dasharray:none;stroke-opacity:1;marker-end:url(#DartArrow-6);paint-order:stroke fill markers"
       d="m 585.16585,1382.3142 35.89571,-41.2998 33.60969,39.5117 37.47246,-40.4738"
       id="path17-3"
       sodipodi:nodetypes="cccc" />
    <g
       id="path17"
       style="opacity:1;mix-blend-mode:normal;fill:#ff1616;fill-opacity:1;stroke:#ff1616;stroke-width:4.7622;stroke-dasharray:none;stroke-opacity:1"
       transform="matrix(0.25210103,0,0,0.25210103,708.82185,1038.9382)">
      <g
         id="g85"
         style="fill:#ff1616;fill-opacity:1;stroke:#ff1616;stroke-width:4.7622;stroke-dasharray:none;stroke-opacity:1">
        <path
           style="baseline-shift:baseline;display:inline;overflow:visible;fill:#ff1616;fill-opacity:1;fill-rule:evenodd;stroke:#ff1616;stroke-width:4.7622;stroke-dasharray:none;stroke-opacity:1;enable-background:accumulate;stop-color:#000000;stop-opacity:1"
           d="m -58.993436,1185.9679 9.901502,68.7547 64.362237,-148.9665 -143.576233,75.6266 z"
           id="path85" />
        <path
           style="baseline-shift:baseline;display:inline;overflow:visible;opacity:1;fill:#ff1616;fill-opacity:1;stroke:#ff1616;stroke-width:4.7622;stroke-linecap:square;stroke-linejoin:round;stroke-dasharray:none;stroke-opacity:1;enable-background:accumulate;stop-color:#000000;stop-opacity:1"
           d="m -67.033203,1173.5469 -9.359375,10.1094 -138.095702,149.1542 -123.25977,-144.9062 c -5.46315,-6.4219 -15.36131,-6.4746 -20.89257,-0.1113 l -142.38477,163.8222 -9.03711,10.3985 20.79492,18.0742 9.03711,-10.3965 131.875,-151.7285 122.9375,144.5234 c 5.35034,6.2893 14.99332,6.4923 20.60352,0.4336 l 148.640622,-160.5449 9.359375,-10.1094 z"
           id="path86"
           inkscape:path-effect="#path-effect86"
           inkscape:original-d="m -67.033203,1173.5469 -9.359375,10.1094 -138.095702,149.1542 -123.25977,-144.9062 a 13.777755,13.777755 0 0 0 -20.89257,-0.1113 l -142.38477,163.8222 -9.03711,10.3985 20.79492,18.0742 9.03711,-10.3965 131.875,-151.7285 122.9375,144.5234 a 13.777755,13.777755 0 0 0 20.60352,0.4336 l 148.640622,-160.5449 9.359375,-10.1094 z" />
      </g>
    </g>
    <text
       xml:space="preserve"
       id="text90"
       style="font-style:normal;font-variant:normal;font-weight:normal;font-stretch:normal;font-size:42.6667px;font-family:Orbitron;-inkscape-font-specification:Orbitron;writing-mode:lr-tb;direction:ltr;white-space:pre;shape-inside:url(#rect90);opacity:1;fill:#ff1616;fill-opacity:1;fill-rule:evenodd;stroke:#ff1616;stroke-width:0.982677;stroke-linecap:square;stroke-linejoin:round;stroke-dasharray:none;stroke-opacity:1;paint-order:normal"
       transform="matrix(2.3735318,0,0,2.5486004,-1592.9745,-2235.2196)"><tspan
         x="979.39453"
         y="1423.1657"
         id="tspan2">redink</tspan></text>
  </g>
</svg>
